<?xml version="1.0" encoding="utf-8"?><!DOCTYPE svg PUBLIC "-//W3C//DTD SVG 1.1//EN" "http://www.w3.org/Graphics/SVG/1.1/DTD/svg11.dtd"><svg version="1.1" xmlns="http://www.w3.org/2000/svg" xmlns:xlink="http://www.w3.org/1999/xlink" x="0" y="0" width="200.000000" height="312.300000"><g><rect x="0.5%" y="0.5%" width="99%" height="99%"  fill="none" /></g><g><rect x="0.5%" y="0.5%" width="99%" height="99%"  rx="10" ry="10" fill="rgb(40,92,77)" /></g><g><rect x="0.5%" y="0.5%" width="99%" height="99%" rx="10" ry="10" style="fill:none;stroke:rgb(40,92,77);stroke-width:2;" /></g><g transform="translate(135.000000 13.000000)">
<g transform="translate(0.000000 0.000000) scale(1.000000)">
<!-- |®|  -->
<g transform="translate( 0.000000 18.000000 ) scale(1 -1)">
<path
	fill="rgb(255,255,255)"
	stroke="rgb(255,255,255)"
	stroke-width="0.657835"
	d="M6.216537 12.260393 
	Q8.757423 12.260393 10.582915 10.443125 
	T12.408406 6.060302 
	Q12.408406 3.502969 10.591138 1.677478 
	T6.216537 -0.148013 
	Q3.650982 -0.148013 1.825491 1.669255 
	T0.000000 6.060302 
	Q0.000000 8.617634 1.825491 10.434902 
	T6.216537 12.260393 
	Z
	M6.200091 0.871631 
	Q8.329831 0.871631 9.851074 2.392873 
	T11.380539 6.060302 
	Q11.380539 8.198264 9.859296 9.711284 
	T6.200091 11.232526 
	Q4.062129 11.232526 2.549109 9.719507 
	T1.027867 6.060302 
	Q1.027867 3.922339 2.540886 2.401096 
	T6.200091 0.871631 
	Z
	M9.094564 2.623116 
	H7.778894 
	Q6.537232 4.884422 6.158977 5.172225 
	T5.205116 5.460027 
	H4.563728 
	V2.623116 
	H3.486524 
	V9.291914 
	H5.797168 
	Q6.833257 9.291914 7.392417 9.143901 
	T8.296939 8.518958 
	T8.642302 7.491092 
	Q8.642302 6.808588 8.148926 6.249429 
	T6.734582 5.624486 
	V5.591594 
	Q7.334856 5.451804 8.288716 3.922339 
	L9.094564 2.623116 
	Z
	M4.563728 6.380996 
	H5.879397 
	Q6.783920 6.380996 7.137506 6.644130 
	T7.491092 7.392417 
	Q7.491092 7.861124 7.153952 8.124258 
	T5.797168 8.387392 
	H4.563728 
	V6.380996 
	Z" />
</g>

</g>
</g><g transform="translate(40.000000 17.000000) scale(4.000000 4.000000)">
  <g id="layer1">
    <g id="g2661" transform="translate(-8.6183135,-4.2)">
      <g id="g54">
        <g id="g56">
          <g id="g58">
            <path
               style="fill:rgb(255,255,255)"
               id="path60"
               d="M 24.287,4.263 C 17.81,4.263 15.522,14.332 13.391,22.43 C 12.622,21.651 10.252,19.288 10.249,19.291 C 9.772,18.819 9.225,18.971 8.889,19.3 C 8.553,19.638 8.504,20.263 8.889,20.642 C 8.908,20.658 12.101,23.843 13.206,24.945 C 13.51,25.242 13.95,25.416 14.388,25.158 C 14.846,24.88 14.909,24.381 14.92,24.381 C 18.702,7.43 22.083,6.167 24.277,6.167 C 26.123,6.167 28.25,7.531 28.25,10.26 C 31.004,10.26 32.729,13.874 30.512,16.102 C 32.35,16.99 33.168,18.084 33.168,19.466 C 33.168,20.851 32.008,22.264 30.318,22.26 C 28.641,22.26 27.788,21.183 26.48,21.18 C 25.888,21.18 25.527,21.658 25.527,22.129 L 25.527,25.552 L 23.059,25.552 L 23.059,22.143 C 23.055,21.608 22.66,21.188 22.171,21.188 C 22.162,21.188 21.959,21.193 21.964,21.199 L 18.659,21.61 C 18.259,21.667 17.892,22.099 17.892,22.549 C 17.892,23.074 18.32,23.507 18.907,23.501 C 18.98,23.501 19.08,23.501 19.071,23.492 C 19.066,23.492 21.164,23.224 21.164,23.224 C 21.164,23.224 21.164,26.589 21.164,26.602 C 21.164,27.032 21.648,27.448 22.083,27.449 L 26.474,27.449 C 26.986,27.449 27.428,27.009 27.428,26.49 L 27.428,23.406 C 28.347,23.968 29.624,24.185 30.281,24.185 C 32.743,24.185 35.095,22.248 35.084,19.41 C 35.074,16.832 33.106,15.548 33.106,15.548 C 34.262,12.468 32.394,9.496 29.97,8.669 C 29.095,5.492 26.383,4.263 24.287,4.263 z"
               knockout="Off" />
          </g>
<!--         <g id="g62">
            <path
               style="fill:rgb(255,255,255)"
               id="path64"
               d="M 24.287,4.263 C 17.81,4.263 15.522,14.332 13.391,22.43 C 12.622,21.651 10.252,19.288 10.249,19.291 C 9.772,18.819 9.225,18.971 8.889,19.3 C 8.553,19.638 8.504,20.263 8.889,20.642 C 8.908,20.658 12.101,23.843 13.206,24.945 C 13.51,25.242 13.95,25.416 14.388,25.158 C 14.846,24.88 14.909,24.381 14.92,24.381 C 18.702,7.43 22.083,6.167 24.277,6.167 C 26.123,6.167 28.25,7.531 28.25,10.26 C 31.004,10.26 32.729,13.874 30.512,16.102 C 32.35,16.99 33.168,18.084 33.168,19.466 C 33.168,20.851 32.008,22.264 30.318,22.26 C 28.641,22.26 27.788,21.183 26.48,21.18 C 25.888,21.18 25.527,21.658 25.527,22.129 L 25.527,25.552 L 23.059,25.552 L 23.059,22.143 C 23.055,21.608 22.66,21.188 22.171,21.188 C 22.162,21.188 21.959,21.193 21.964,21.199 L 18.659,21.61 C 18.259,21.667 17.892,22.099 17.892,22.549 C 17.892,23.074 18.32,23.507 18.907,23.501 C 18.98,23.501 19.08,23.501 19.071,23.492 C 19.066,23.492 21.164,23.224 21.164,23.224 C 21.164,23.224 21.164,26.589 21.164,26.602 C 21.164,27.032 21.648,27.448 22.083,27.449 L 26.474,27.449 C 26.986,27.449 27.428,27.009 27.428,26.49 L 27.428,23.406 C 28.347,23.968 29.624,24.185 30.281,24.185 C 32.743,24.185 35.095,22.248 35.084,19.41 C 35.074,16.832 33.106,15.548 33.106,15.548 C 34.262,12.468 32.394,9.496 29.97,8.669 C 29.095,5.492 26.383,4.263 24.287,4.263 z"
               knockout="Off" />
          </g>
-->          
          <g id="g66">
            <path
               style="fill:rgb(255,255,255)"
               id="path68"
               d="M 21.521,31.217 C 21.521,32.014 22.411,32.493 23.873,33.189 C 25.034,33.733 25.702,34.308 25.702,34.768 C 25.702,35.516 24.897,35.781 24.144,35.781 C 22.978,35.781 22.289,35.317 21.909,34.275 L 21.877,34.185 L 21.783,34.185 C 21.576,34.185 21.413,34.194 21.322,34.309 C 21.242,34.413 21.264,34.552 21.3,34.688 C 21.297,34.685 21.556,35.758 21.556,35.758 C 21.624,36.02 21.718,36.062 22.134,36.143 C 22.316,36.175 23.258,36.339 24.056,36.339 C 26.283,36.339 27.279,35.434 27.279,34.537 C 27.279,33.884 26.632,33.258 25.236,32.563 L 24.6,32.257 C 23.645,31.802 23.07,31.53 23.07,31.051 C 23.07,30.587 23.666,30.262 24.523,30.262 C 25.636,30.262 25.935,30.885 26.071,31.428 L 26.096,31.531 L 26.203,31.531 C 26.45,31.531 26.607,31.511 26.698,31.409 C 26.753,31.353 26.772,31.275 26.762,31.182 L 26.673,30.255 C 26.649,29.959 26.422,29.915 26.108,29.853 C 25.734,29.785 25.286,29.705 24.609,29.705 C 22.676,29.705 21.521,30.271 21.521,31.217 z"
               knockout="Off" />
          </g>
          <g id="g70">
            <path
               style="fill:rgb(255,255,255)"
               id="path72"
               d="M 27.934,33.093 C 27.934,34.704 29.333,36.338 32.008,36.338 C 33.358,36.338 34.118,36.03 34.684,35.729 L 34.838,35.646 L 34.588,35.372 L 34.602,35.386 C 34.544,35.301 34.495,35.287 34.406,35.287 L 34.275,35.331 C 34.072,35.426 33.453,35.713 32.329,35.713 C 30.946,35.713 29.455,34.81 29.455,32.822 C 29.455,30.931 31.071,30.261 32.45,30.261 C 33.444,30.261 33.972,30.616 34.068,31.349 L 34.082,31.47 L 34.206,31.47 C 34.323,31.47 34.638,31.47 34.638,31.235 L 34.638,30.131 C 34.638,29.862 34.327,29.821 34.195,29.803 L 34.066,29.786 C 33.748,29.742 33.443,29.704 32.636,29.704 C 29.912,29.705 27.934,31.129 27.934,33.093 z"
               knockout="Off" />
          </g>
          <g id="g74">
            <path
               style="fill:rgb(255,255,255)"
               id="path76"
               d="M 17.847,29.783 L 15.438,29.804 L 13.83,29.776 L 13.586,29.77 C 13.443,29.77 13.341,29.874 13.341,30.022 C 13.341,30.091 13.341,30.306 13.606,30.306 C 14.577,30.306 14.612,30.387 14.623,30.758 L 14.63,30.993 L 14.645,31.985 L 14.645,34.123 C 14.645,34.478 14.633,35.041 14.61,35.496 C 14.604,35.626 14.596,35.75 13.738,35.75 C 13.499,35.75 13.354,35.798 13.354,36.035 C 13.354,36.105 13.354,36.288 13.586,36.288 L 13.641,36.286 C 13.742,36.281 14.015,36.269 15.356,36.269 C 16.784,36.269 17.073,36.283 17.168,36.286 L 17.221,36.288 C 17.408,36.288 17.571,36.267 17.571,36.035 C 17.571,35.77 17.352,35.75 16.99,35.75 C 16.128,35.75 16.123,35.626 16.117,35.498 C 16.096,35.08 16.079,34.516 16.079,34.123 C 16.079,34.123 16.079,33.552 16.079,33.354 C 16.273,33.354 16.799,33.354 16.799,33.354 C 17.905,33.354 18.03,33.383 18.188,34.236 C 18.231,34.421 18.379,34.444 18.503,34.444 C 18.763,34.444 18.792,34.302 18.792,34.238 L 18.771,33.921 C 18.753,33.738 18.734,33.509 18.734,33.199 L 18.734,31.89 C 18.734,31.692 18.499,31.692 18.372,31.692 C 18.163,31.692 18.114,31.826 17.981,32.445 C 17.922,32.681 17.466,32.817 16.73,32.817 C 16.73,32.817 16.268,32.817 16.079,32.817 C 16.079,32.576 16.079,30.893 16.079,30.893 C 16.079,30.369 16.172,30.366 16.287,30.361 C 16.709,30.343 17.735,30.306 18.042,30.306 C 18.334,30.306 18.603,30.373 18.777,30.488 C 19.323,30.828 19.604,31.059 19.774,31.197 C 19.939,31.331 20.032,31.409 20.169,31.409 C 20.246,31.409 20.48,31.409 20.48,31.208 C 20.48,31.159 20.46,31.113 20.384,30.947 C 20.295,30.75 20.143,30.424 19.954,29.926 C 19.901,29.769 19.718,29.769 19.38,29.769 L 17.847,29.783 z"
               knockout="Off" />
          </g>
        </g>
      </g>
    </g>
  </g>

</g><g transform="translate(40.000000 17.000000) scale(4.000000 4.000000)">
  <g
     id="layer1">
    <g id="g2661"
       transform="translate(-8.6183135,-4.2)">
      <g
         knockout="Off"
         id="g26">
        <path
           knockout="Off"
           d="M 13.998,41.261 L 13.346,39.138 L 13.721,39.138 L 14.063,40.361 L 14.184,40.818 C 14.189,40.797 14.227,40.652 14.298,40.384 L 14.635,39.138 L 15.002,39.138 L 15.318,40.368 L 15.421,40.774 L 15.544,40.366 L 15.917,39.137 L 16.267,39.137 L 15.586,41.26 L 15.223,41.26 L 14.891,39.989 L 14.808,39.628 L 14.371,41.261 L 13.998,41.261 z"
           id="path28"
           style="fill:rgb(255,255,255)" />
        <path
           knockout="Off"
           d="M 17.03,41.261 L 16.377,39.138 L 16.752,39.138 L 17.094,40.361 L 17.215,40.818 C 17.22,40.797 17.258,40.652 17.329,40.384 L 17.665,39.138 L 18.032,39.138 L 18.349,40.368 L 18.451,40.774 L 18.574,40.366 L 18.948,39.137 L 19.298,39.137 L 18.616,41.26 L 18.254,41.26 L 17.921,39.989 L 17.838,39.628 L 17.4,41.261 L 17.03,41.261 z"
           id="path30"
           style="fill:rgb(255,255,255)" />
        <path
           knockout="Off"
           d="M 20.06,41.261 L 19.408,39.138 L 19.783,39.138 L 20.125,40.361 L 20.246,40.818 C 20.251,40.797 20.289,40.652 20.36,40.384 L 20.697,39.138 L 21.063,39.138 L 21.38,40.368 L 21.483,40.774 L 21.606,40.366 L 21.979,39.137 L 22.329,39.137 L 21.648,41.26 L 21.285,41.26 L 20.953,39.989 L 20.87,39.628 L 20.433,41.261 L 20.06,41.261 z"
           id="path32"
           style="fill:rgb(255,255,255)" />
        <path
           knockout="Off"
           d="M 22.405,41.261 L 22.405,40.853 L 22.812,40.853 L 22.812,41.261 L 22.405,41.261 z"
           id="path34"
           style="fill:rgb(255,255,255)" />
        <path
           knockout="Off"
           d="M 23.426,41.261 L 23.426,39.417 L 23.115,39.417 L 23.115,39.138 L 23.426,39.138 L 23.426,38.913 C 23.426,38.77 23.44,38.666 23.464,38.597 C 23.499,38.504 23.561,38.429 23.648,38.371 C 23.736,38.312 23.858,38.284 24.015,38.284 C 24.115,38.284 24.227,38.296 24.349,38.319 L 24.296,38.631 C 24.22,38.618 24.15,38.611 24.084,38.611 C 23.976,38.611 23.897,38.633 23.853,38.68 C 23.808,38.728 23.786,38.814 23.786,38.941 L 23.786,39.136 L 24.2,39.136 L 24.2,39.415 L 23.786,39.415 L 23.786,41.259 L 23.426,41.259 L 23.426,41.261 z"
           id="path36"
           style="fill:rgb(255,255,255)" />
        <path
           knockout="Off"
           d="M 24.382,40.62 L 24.742,40.573 C 24.762,40.716 24.815,40.823 24.906,40.901 C 24.998,40.973 25.124,41.012 25.286,41.012 C 25.45,41.012 25.572,40.977 25.65,40.912 C 25.73,40.842 25.769,40.764 25.769,40.674 C 25.769,40.592 25.735,40.528 25.664,40.481 C 25.614,40.45 25.494,40.409 25.3,40.36 C 25.041,40.294 24.861,40.235 24.759,40.188 C 24.655,40.137 24.577,40.071 24.526,39.987 C 24.472,39.899 24.446,39.805 24.446,39.702 C 24.446,39.606 24.467,39.518 24.512,39.44 C 24.554,39.358 24.613,39.292 24.686,39.237 C 24.744,39.198 24.817,39.163 24.914,39.132 C 25.011,39.105 25.113,39.091 25.224,39.091 C 25.388,39.091 25.533,39.114 25.659,39.163 C 25.784,39.212 25.876,39.276 25.936,39.358 C 25.995,39.44 26.036,39.551 26.059,39.688 L 25.707,39.737 C 25.691,39.626 25.645,39.54 25.571,39.477 C 25.495,39.416 25.387,39.385 25.251,39.385 C 25.089,39.385 24.973,39.412 24.902,39.467 C 24.831,39.522 24.798,39.584 24.798,39.658 C 24.798,39.705 24.812,39.748 24.841,39.785 C 24.87,39.822 24.915,39.855 24.979,39.881 C 25.013,39.895 25.118,39.926 25.29,39.973 C 25.541,40.041 25.718,40.096 25.817,40.139 C 25.917,40.184 25.996,40.246 26.053,40.328 C 26.109,40.41 26.138,40.514 26.138,40.637 C 26.138,40.756 26.103,40.867 26.034,40.975 C 25.965,41.08 25.864,41.163 25.733,41.219 C 25.601,41.278 25.453,41.307 25.287,41.307 C 25.014,41.307 24.804,41.25 24.659,41.135 C 24.515,41.021 24.422,40.847 24.382,40.62 z"
           id="path38"
           style="fill:rgb(255,255,255)" />
        <path
           knockout="Off"
           d="M 27.919,40.485 L 28.271,40.534 C 28.233,40.776 28.134,40.966 27.978,41.1 C 27.818,41.239 27.624,41.307 27.395,41.307 C 27.106,41.307 26.874,41.211 26.7,41.024 C 26.525,40.833 26.436,40.561 26.436,40.208 C 26.436,39.978 26.475,39.776 26.549,39.604 C 26.624,39.434 26.739,39.305 26.894,39.219 C 27.049,39.131 27.216,39.09 27.398,39.09 C 27.627,39.09 27.813,39.147 27.96,39.266 C 28.106,39.383 28.2,39.551 28.24,39.768 L 27.888,39.815 C 27.856,39.674 27.796,39.565 27.712,39.493 C 27.629,39.421 27.528,39.386 27.408,39.386 C 27.228,39.386 27.083,39.45 26.971,39.579 C 26.858,39.71 26.802,39.917 26.802,40.198 C 26.802,40.481 26.856,40.69 26.965,40.817 C 27.073,40.948 27.215,41.012 27.39,41.012 C 27.53,41.012 27.647,40.969 27.742,40.883 C 27.834,40.798 27.895,40.665 27.919,40.485 z"
           id="path40"
           style="fill:rgb(255,255,255)" />
        <path
           knockout="Off"
           d="M 28.655,41.261 L 28.655,40.853 L 29.063,40.853 L 29.063,41.261 L 28.655,41.261 z"
           id="path42"
           style="fill:rgb(255,255,255)" />
        <path
           knockout="Off"
           d="M 29.396,40.2 C 29.396,39.805 29.504,39.514 29.723,39.325 C 29.905,39.169 30.127,39.091 30.389,39.091 C 30.681,39.091 30.919,39.187 31.105,39.376 C 31.289,39.567 31.381,39.831 31.381,40.169 C 31.381,40.442 31.341,40.657 31.259,40.814 C 31.177,40.971 31.057,41.091 30.901,41.179 C 30.747,41.265 30.574,41.308 30.389,41.308 C 30.092,41.308 29.853,41.212 29.67,41.023 C 29.488,40.831 29.396,40.558 29.396,40.2 z M 29.764,40.198 C 29.764,40.469 29.824,40.675 29.943,40.809 C 30.061,40.944 30.211,41.012 30.39,41.012 C 30.569,41.012 30.719,40.944 30.837,40.807 C 30.956,40.672 31.016,40.465 31.016,40.186 C 31.016,39.922 30.956,39.723 30.836,39.588 C 30.717,39.453 30.567,39.385 30.39,39.385 C 30.21,39.385 30.061,39.453 29.943,39.586 C 29.823,39.722 29.764,39.927 29.764,40.198 z"
           id="path44"
           style="fill:rgb(255,255,255)" />
        <path
           knockout="Off"
           d="M 31.796,41.261 L 31.796,39.138 L 32.113,39.138 L 32.113,39.464 C 32.197,39.312 32.273,39.212 32.342,39.163 C 32.413,39.114 32.489,39.091 32.572,39.091 C 32.694,39.091 32.816,39.128 32.943,39.208 L 32.815,39.536 C 32.729,39.489 32.643,39.466 32.555,39.466 C 32.478,39.466 32.409,39.489 32.345,39.536 C 32.284,39.583 32.239,39.649 32.212,39.733 C 32.173,39.86 32.153,39.999 32.153,40.151 L 32.153,41.26 L 31.796,41.26 L 31.796,41.261 z"
           id="path46"
           style="fill:rgb(255,255,255)" />
        <path
           knockout="Off"
           d="M 33.055,41.435 L 33.414,41.484 C 33.429,41.595 33.468,41.673 33.534,41.726 C 33.623,41.792 33.745,41.828 33.898,41.828 C 34.062,41.828 34.191,41.793 34.281,41.726 C 34.371,41.659 34.432,41.564 34.465,41.445 C 34.484,41.371 34.491,41.216 34.49,40.98 C 34.333,41.168 34.136,41.261 33.902,41.261 C 33.608,41.261 33.382,41.156 33.222,40.945 C 33.062,40.734 32.982,40.482 32.982,40.187 C 32.982,39.986 33.019,39.798 33.091,39.626 C 33.166,39.456 33.271,39.323 33.411,39.23 C 33.55,39.136 33.714,39.091 33.901,39.091 C 34.152,39.091 34.358,39.195 34.52,39.402 L 34.52,39.138 L 34.847,39.138 L 34.847,40.972 C 34.847,41.302 34.814,41.536 34.746,41.675 C 34.681,41.812 34.573,41.921 34.428,42.001 C 34.282,42.081 34.103,42.12 33.891,42.12 C 33.639,42.12 33.434,42.065 33.278,41.952 C 33.124,41.837 33.049,41.665 33.055,41.435 z M 33.349,40.161 C 33.349,40.44 33.407,40.643 33.517,40.772 C 33.627,40.901 33.768,40.963 33.935,40.963 C 34.102,40.963 34.241,40.901 34.354,40.774 C 34.466,40.645 34.522,40.446 34.522,40.172 C 34.522,39.912 34.465,39.715 34.348,39.582 C 34.233,39.451 34.093,39.385 33.929,39.385 C 33.768,39.385 33.632,39.449 33.519,39.58 C 33.406,39.712 33.349,39.905 33.349,40.161 z"
           id="path48"
           style="fill:rgb(255,255,255)" />
      </g>
   </g>
</g></g><g transform="translate(20.000000 180.800000)">
<g transform="translate(49.969849 0.000000) scale(1.000000)">
<!-- |100%|  -->
<g transform="translate( 0.000000 24.000000 ) scale(1 -1)">
<path
	fill="rgb(255,255,255)"
	stroke="rgb(255,255,255)"
	stroke-width="0.877113"
	d="M8.420283 0.000000 
	H6.446779 
	V12.575605 
	Q4.966651 11.172225 2.488808 10.196437 
	V12.104157 
	Q5.898584 13.737780 7.137506 16.149840 
	H8.420283 
	V0.000000 
	Z" />
</g>
<g transform="translate( 13.365007 24.000000 ) scale(1 -1)">
<path
	fill="rgb(255,255,255)"
	stroke="rgb(255,255,255)"
	stroke-width="0.877113"
	d="M6.238465 16.149840 
	Q11.479214 16.149840 11.479214 7.926907 
	Q11.479214 3.771585 10.130653 1.754226 
	T6.238465 -0.274098 
	Q1.008680 -0.274098 1.008680 7.926907 
	Q1.008680 12.082229 2.357241 14.110553 
	T6.238465 16.149840 
	Z
	M6.238465 1.348561 
	Q7.828232 1.348561 8.639561 2.883508 
	T9.450891 7.926907 
	Q9.450891 10.360895 9.100046 11.753312 
	T8.025582 13.836455 
	T6.216537 14.527181 
	Q4.626770 14.527181 3.826405 12.959342 
	T3.026039 7.926907 
	Q3.026039 5.525811 3.387848 4.122430 
	T4.462312 2.039287 
	T6.238465 1.348561 
	Z" />
</g>
<g transform="translate( 26.730014 24.000000 ) scale(1 -1)">
<path
	fill="rgb(255,255,255)"
	stroke="rgb(255,255,255)"
	stroke-width="0.877113"
	d="M6.238465 16.149840 
	Q11.479214 16.149840 11.479214 7.926907 
	Q11.479214 3.771585 10.130653 1.754226 
	T6.238465 -0.274098 
	Q1.008680 -0.274098 1.008680 7.926907 
	Q1.008680 12.082229 2.357241 14.110553 
	T6.238465 16.149840 
	Z
	M6.238465 1.348561 
	Q7.828232 1.348561 8.639561 2.883508 
	T9.450891 7.926907 
	Q9.450891 10.360895 9.100046 11.753312 
	T8.025582 13.836455 
	T6.216537 14.527181 
	Q4.626770 14.527181 3.826405 12.959342 
	T3.026039 7.926907 
	Q3.026039 5.525811 3.387848 4.122430 
	T4.462312 2.039287 
	T6.238465 1.348561 
	Z" />
</g>
<g transform="translate( 40.095021 24.000000 ) scale(1 -1)">
<path
	fill="rgb(255,255,255)"
	stroke="rgb(255,255,255)"
	stroke-width="0.877113"
	d="M15.174052 16.347190 
	L6.446779 -0.559159 
	H4.802193 
	L13.584285 16.347190 
	H15.174052 
	Z
	M5.010507 16.325263 
	Q6.512563 16.325263 7.499315 15.239836 
	T8.486067 12.060302 
	Q8.486067 9.999086 7.477387 8.913659 
	T5.032435 7.817268 
	Q3.541343 7.817268 2.598447 8.913659 
	T1.644587 12.191868 
	Q1.644587 13.978986 2.532663 15.152124 
	T5.010507 16.325263 
	Z
	M5.054363 9.187757 
	Q6.775697 9.187757 6.775697 12.148013 
	Q6.775697 14.976702 5.054363 14.976702 
	Q3.343993 14.976702 3.343993 11.994518 
	Q3.343993 9.187757 5.054363 9.187757 
	Z
	M14.910918 7.904979 
	Q16.423938 7.904979 17.399726 6.819552 
	T18.386478 3.640018 
	Q18.386478 2.105071 17.849246 1.151211 
	T16.522613 -0.197350 
	T14.932846 -0.603015 
	Q13.441754 -0.603015 12.498858 0.493376 
	T11.544998 3.771585 
	Q11.544998 5.558703 12.433074 6.731841 
	T14.910918 7.904979 
	Z
	M14.954774 0.767474 
	Q16.687072 0.767474 16.687072 3.727730 
	Q16.687072 6.556418 14.954774 6.556418 
	Q13.244404 6.556418 13.244404 3.574235 
	Q13.244404 0.767474 14.954774 0.767474 
	Z" />
</g>

</g>
</g><g transform="translate(20.000000 219.600000)">
<g transform="translate(14.570123 0.000000) scale(1.000000)">
<!-- |Wood from well-|  -->
<g transform="translate( 0.000000 18.000000 ) scale(1 -1)">
<path
	fill="rgb(255,255,255)"
	stroke="rgb(255,255,255)"
	stroke-width="0.657835"
	d="M15.714025 12.054820 
	L12.391960 0.000000 
	H10.862494 
	L8.231156 9.497487 
	Q8.025582 10.229328 7.968022 10.607583 
	H7.935130 
	L7.597990 9.176793 
	L5.032435 0.000000 
	H3.420740 
	L0.205573 12.054820 
	H1.833714 
	L3.692097 4.144358 
	Q4.062129 2.590224 4.160804 1.858383 
	Q4.177250 1.710370 4.177250 1.685701 
	H4.210142 
	Q4.539059 3.248058 4.728186 3.922339 
	L7.022385 12.054820 
	H8.962997 
	L10.673367 5.961626 
	Q11.314756 3.692097 11.602558 1.685701 
	H11.635450 
	Q11.808132 2.664230 12.211055 4.308817 
	L14.110553 12.054820 
	H15.714025 
	Z" />
</g>
<g transform="translate( 16.552764 18.000000 ) scale(1 -1)">
<path
	fill="rgb(255,255,255)"
	stroke="rgb(255,255,255)"
	stroke-width="0.657835"
	d="M4.678849 8.921882 
	Q6.446779 8.921882 7.606213 7.770672 
	T8.773869 4.497944 
	Q8.773869 1.924166 7.515761 0.863408 
	T4.678849 -0.205573 
	Q3.026039 -0.205573 1.809045 0.888077 
	T0.592051 4.358154 
	Q0.592051 6.660576 1.767931 7.787117 
	T4.678849 8.921882 
	Z
	M4.678849 1.011421 
	Q5.945180 1.011421 6.603015 1.948835 
	T7.260850 4.415715 
	Q7.260850 6.052079 6.520786 6.882595 
	T4.678849 7.713111 
	Q3.552307 7.713111 2.828689 6.874372 
	T2.105071 4.358154 
	Q2.105071 2.697122 2.836912 1.858383 
	T4.678849 1.011421 
	Z" />
</g>
<g transform="translate( 26.576519 18.000000 ) scale(1 -1)">
<path
	fill="rgb(255,255,255)"
	stroke="rgb(255,255,255)"
	stroke-width="0.657835"
	d="M4.678849 8.921882 
	Q6.446779 8.921882 7.606213 7.770672 
	T8.773869 4.497944 
	Q8.773869 1.924166 7.515761 0.863408 
	T4.678849 -0.205573 
	Q3.026039 -0.205573 1.809045 0.888077 
	T0.592051 4.358154 
	Q0.592051 6.660576 1.767931 7.787117 
	T4.678849 8.921882 
	Z
	M4.678849 1.011421 
	Q5.945180 1.011421 6.603015 1.948835 
	T7.260850 4.415715 
	Q7.260850 6.052079 6.520786 6.882595 
	T4.678849 7.713111 
	Q3.552307 7.713111 2.828689 6.874372 
	T2.105071 4.358154 
	Q2.105071 2.697122 2.836912 1.858383 
	T4.678849 1.011421 
	Z" />
</g>
<g transform="translate( 36.600274 18.000000 ) scale(1 -1)">
<path
	fill="rgb(255,255,255)"
	stroke="rgb(255,255,255)"
	stroke-width="0.657835"
	d="M8.181818 0.000000 
	H6.800365 
	V1.110096 
	H6.767474 
	Q5.969849 -0.205573 4.358154 -0.205573 
	Q2.754683 -0.205573 1.685701 1.060758 
	T0.608497 4.358154 
	Q0.608497 6.471448 1.619918 7.696665 
	T4.292371 8.921882 
	Q5.854728 8.921882 6.668799 7.729557 
	H6.701690 
	V12.054820 
	H8.181818 
	V0.000000 
	Z
	M4.514390 1.011421 
	Q5.484696 1.011421 6.158977 1.809045 
	T6.833257 4.226587 
	Q6.833257 5.821836 6.216537 6.767474 
	T4.448607 7.713111 
	Q3.297396 7.713111 2.713568 6.792143 
	T2.121517 4.358154 
	Q2.121517 3.272727 2.433988 2.524440 
	T3.322065 1.389676 
	T4.514390 1.011421 
	Z" />
</g>
<g transform="translate( 51.960713 18.000000 ) scale(1 -1)">
<path
	fill="rgb(255,255,255)"
	stroke="rgb(255,255,255)"
	stroke-width="0.657835"
	d="M5.238008 12.112380 
	L5.015989 10.813157 
	Q4.571951 10.895386 4.144358 10.895386 
	Q3.609868 10.895386 3.272727 10.673367 
	T2.927364 9.546825 
	V8.724532 
	H4.613065 
	V7.581544 
	H2.927364 
	V0.000000 
	H1.447236 
	V7.581544 
	H0.131567 
	V8.724532 
	H1.447236 
	V9.670169 
	Q1.447236 10.328004 1.570580 10.862494 
	T2.220192 11.824577 
	T3.856556 12.260393 
	Q4.514390 12.260393 5.238008 12.112380 
	Z" />
</g>
<g transform="translate( 57.297396 18.000000 ) scale(1 -1)">
<path
	fill="rgb(255,255,255)"
	stroke="rgb(255,255,255)"
	stroke-width="0.657835"
	d="M5.830059 8.453175 
	L5.320238 7.088168 
	Q4.769301 7.408862 4.243033 7.408862 
	Q3.412517 7.408862 2.984925 6.668799 
	T2.557332 4.580174 
	V0.000000 
	H1.077204 
	V8.724532 
	H2.425765 
	V7.408862 
	H2.458657 
	Q3.165829 8.921882 4.308817 8.921882 
	Q5.065327 8.921882 5.830059 8.453175 
	Z" />
</g>
<g transform="translate( 63.563271 18.000000 ) scale(1 -1)">
<path
	fill="rgb(255,255,255)"
	stroke="rgb(255,255,255)"
	stroke-width="0.657835"
	d="M4.678849 8.921882 
	Q6.446779 8.921882 7.606213 7.770672 
	T8.773869 4.497944 
	Q8.773869 1.924166 7.515761 0.863408 
	T4.678849 -0.205573 
	Q3.026039 -0.205573 1.809045 0.888077 
	T0.592051 4.358154 
	Q0.592051 6.660576 1.767931 7.787117 
	T4.678849 8.921882 
	Z
	M4.678849 1.011421 
	Q5.945180 1.011421 6.603015 1.948835 
	T7.260850 4.415715 
	Q7.260850 6.052079 6.520786 6.882595 
	T4.678849 7.713111 
	Q3.552307 7.713111 2.828689 6.874372 
	T2.105071 4.358154 
	Q2.105071 2.697122 2.836912 1.858383 
	T4.678849 1.011421 
	Z" />
</g>
<g transform="translate( 73.587026 18.000000 ) scale(1 -1)">
<path
	fill="rgb(255,255,255)"
	stroke="rgb(255,255,255)"
	stroke-width="0.657835"
	d="M12.951119 0.000000 
	H11.470991 
	V5.509365 
	Q11.470991 6.117862 11.388762 6.545455 
	T10.969392 7.310187 
	T9.900411 7.647328 
	Q9.028780 7.647328 8.395614 7.038831 
	T7.762449 5.065327 
	V0.000000 
	H6.282321 
	V5.673824 
	Q6.282321 6.808588 5.887620 7.227958 
	T4.752855 7.647328 
	Q3.798995 7.647328 3.190498 6.989493 
	T2.573778 4.530836 
	V0.000000 
	H1.093650 
	V8.724532 
	H2.425765 
	V7.507538 
	H2.458657 
	Q3.346734 8.921882 5.065327 8.921882 
	Q6.027410 8.921882 6.644130 8.543627 
	T7.548652 7.392417 
	Q8.518958 8.921882 10.237551 8.921882 
	Q11.594335 8.921882 12.268616 8.190041 
	T12.951119 5.994518 
	V0.000000 
	Z" />
</g>
<g transform="translate( 93.609868 18.000000 ) scale(1 -1)">
<path
	fill="rgb(255,255,255)"
	stroke="rgb(255,255,255)"
	stroke-width="0.657835"
	d="M12.071265 8.724532 
	L9.333029 0.000000 
	H7.795340 
	L6.413888 5.238008 
	Q6.405665 5.238008 6.241206 5.945180 
	T6.076747 6.718136 
	H6.043856 
	L4.308817 0.000000 
	H2.762905 
	L0.082229 8.724532 
	H1.619918 
	L3.519415 1.817268 
	L3.815441 2.993148 
	L5.369575 8.724532 
	H6.890818 
	L8.066697 4.152581 
	Q8.560073 2.261307 8.609411 2.006396 
	H8.642302 
	L10.624029 8.724532 
	H12.071265 
	Z" />
</g>
<g transform="translate( 106.429420 18.000000 ) scale(1 -1)">
<path
	fill="rgb(255,255,255)"
	stroke="rgb(255,255,255)"
	stroke-width="0.657835"
	d="M8.708086 3.988122 
	H2.170854 
	Q2.261307 2.540886 2.993148 1.776153 
	T4.835085 1.011421 
	Q5.682047 1.011421 6.257652 1.455459 
	T7.137506 2.812243 
	L8.658748 2.623116 
	Q8.288716 1.258109 7.301964 0.526268 
	T4.835085 -0.205573 
	Q2.869804 -0.205573 1.767931 0.994975 
	T0.657835 4.292371 
	Q0.657835 6.356327 1.726816 7.639105 
	T4.752855 8.921882 
	Q5.706715 8.921882 6.586569 8.502513 
	T8.091366 7.079945 
	T8.708086 3.988122 
	Z
	M7.186843 5.205116 
	Q7.096391 6.537232 6.364550 7.121060 
	T4.752855 7.713111 
	Q3.708543 7.713111 3.034262 7.014162 
	T2.253084 5.205116 
	H7.186843 
	Z" />
</g>
<g transform="translate( 116.453175 18.000000 ) scale(1 -1)">
<path
	fill="rgb(255,255,255)"
	stroke="rgb(255,255,255)"
	stroke-width="0.657835"
	d="M2.606670 0.000000 
	H1.126542 
	V12.054820 
	H2.606670 
	V0.000000 
	Z" />
</g>
<g transform="translate( 120.852444 18.000000 ) scale(1 -1)">
<path
	fill="rgb(255,255,255)"
	stroke="rgb(255,255,255)"
	stroke-width="0.657835"
	d="M2.606670 0.000000 
	H1.126542 
	V12.054820 
	H2.606670 
	V0.000000 
	Z" />
</g>
<g transform="translate( 125.251713 18.000000 ) scale(1 -1)">
<path
	fill="rgb(255,255,255)"
	stroke="rgb(255,255,255)"
	stroke-width="0.657835"
	d="M5.065327 3.618090 
	H0.542714 
	V5.106441 
	H5.065327 
	V3.618090 
	Z" />
</g>

</g>

<g transform="translate(12.674737 19.000000) scale(1.000000)">
<!-- |managed forests|  -->
<g transform="translate( 0.000000 18.000000 ) scale(1 -1)">
<path
	fill="rgb(255,255,255)"
	stroke="rgb(255,255,255)"
	stroke-width="0.657835"
	d="M12.951119 0.000000 
	H11.470991 
	V5.509365 
	Q11.470991 6.117862 11.388762 6.545455 
	T10.969392 7.310187 
	T9.900411 7.647328 
	Q9.028780 7.647328 8.395614 7.038831 
	T7.762449 5.065327 
	V0.000000 
	H6.282321 
	V5.673824 
	Q6.282321 6.808588 5.887620 7.227958 
	T4.752855 7.647328 
	Q3.798995 7.647328 3.190498 6.989493 
	T2.573778 4.530836 
	V0.000000 
	H1.093650 
	V8.724532 
	H2.425765 
	V7.507538 
	H2.458657 
	Q3.346734 8.921882 5.065327 8.921882 
	Q6.027410 8.921882 6.644130 8.543627 
	T7.548652 7.392417 
	Q8.518958 8.921882 10.237551 8.921882 
	Q11.594335 8.921882 12.268616 8.190041 
	T12.951119 5.994518 
	V0.000000 
	Z" />
</g>
<g transform="translate( 14.686158 18.000000 ) scale(1 -1)">
<path
	fill="rgb(255,255,255)"
	stroke="rgb(255,255,255)"
	stroke-width="0.657835"
	d="M8.691640 0.000000 
	H7.137506 
	Q6.923709 0.411147 6.833257 1.077204 
	Q5.344906 -0.205573 3.618090 -0.205573 
	Q2.236638 -0.205573 1.439013 0.485153 
	T0.641389 2.310644 
	Q0.641389 3.396071 1.406122 4.095021 
	T4.078575 5.032435 
	L5.460027 5.238008 
	Q6.232983 5.361352 6.734582 5.542257 
	Q6.734582 6.208314 6.693467 6.479671 
	T6.455002 7.055276 
	T5.805391 7.532206 
	T4.613065 7.713111 
	Q3.659205 7.713111 3.108269 7.359525 
	T2.343536 6.043856 
	L0.896300 6.232983 
	Q1.134765 7.573321 2.121517 8.247602 
	T4.835085 8.921882 
	Q6.405665 8.921882 7.137506 8.461398 
	T8.042028 7.334856 
	T8.214710 5.640932 
	V3.650982 
	Q8.214710 1.833714 8.280493 1.216994 
	T8.691640 0.000000 
	Z
	M6.734582 3.840110 
	V4.374600 
	Q5.575148 3.988122 3.897670 3.766103 
	T2.220192 2.343536 
	Q2.220192 1.743262 2.672453 1.356784 
	T3.971677 0.962083 
	Q5.065327 0.962083 5.895843 1.611695 
	T6.734582 3.840110 
	Z" />
</g>
<g transform="translate( 24.709913 18.000000 ) scale(1 -1)">
<path
	fill="rgb(255,255,255)"
	stroke="rgb(255,255,255)"
	stroke-width="0.657835"
	d="M8.255825 0.000000 
	H6.767474 
	V5.303792 
	Q6.767474 6.644130 6.290544 7.145729 
	T4.950206 7.647328 
	Q4.292371 7.647328 3.708543 7.326633 
	T2.869804 6.422111 
	T2.623116 4.769301 
	V0.000000 
	H1.142988 
	V8.724532 
	H2.475103 
	V7.491092 
	H2.507995 
	Q2.976702 8.206487 3.659205 8.560073 
	T5.254454 8.921882 
	Q5.945180 8.921882 6.619461 8.675194 
	T7.671996 7.935130 
	T8.157149 6.882595 
	T8.255825 5.369575 
	V0.000000 
	Z" />
</g>
<g transform="translate( 34.733668 18.000000 ) scale(1 -1)">
<path
	fill="rgb(255,255,255)"
	stroke="rgb(255,255,255)"
	stroke-width="0.657835"
	d="M8.691640 0.000000 
	H7.137506 
	Q6.923709 0.411147 6.833257 1.077204 
	Q5.344906 -0.205573 3.618090 -0.205573 
	Q2.236638 -0.205573 1.439013 0.485153 
	T0.641389 2.310644 
	Q0.641389 3.396071 1.406122 4.095021 
	T4.078575 5.032435 
	L5.460027 5.238008 
	Q6.232983 5.361352 6.734582 5.542257 
	Q6.734582 6.208314 6.693467 6.479671 
	T6.455002 7.055276 
	T5.805391 7.532206 
	T4.613065 7.713111 
	Q3.659205 7.713111 3.108269 7.359525 
	T2.343536 6.043856 
	L0.896300 6.232983 
	Q1.134765 7.573321 2.121517 8.247602 
	T4.835085 8.921882 
	Q6.405665 8.921882 7.137506 8.461398 
	T8.042028 7.334856 
	T8.214710 5.640932 
	V3.650982 
	Q8.214710 1.833714 8.280493 1.216994 
	T8.691640 0.000000 
	Z
	M6.734582 3.840110 
	V4.374600 
	Q5.575148 3.988122 3.897670 3.766103 
	T2.220192 2.343536 
	Q2.220192 1.743262 2.672453 1.356784 
	T3.971677 0.962083 
	Q5.065327 0.962083 5.895843 1.611695 
	T6.734582 3.840110 
	Z" />
</g>
<g transform="translate( 44.757423 18.000000 ) scale(1 -1)">
<path
	fill="rgb(255,255,255)"
	stroke="rgb(255,255,255)"
	stroke-width="0.657835"
	d="M8.272270 1.175879 
	Q8.272270 -0.682503 7.902238 -1.595249 
	T6.586569 -3.026039 
	T4.325263 -3.535861 
	Q2.845135 -3.535861 1.858383 -2.878026 
	T0.871631 -0.723618 
	L2.310644 -0.945637 
	Q2.392873 -1.636364 2.886249 -1.981727 
	T4.308817 -2.327090 
	Q5.460027 -2.327090 5.994518 -1.858383 
	T6.644130 -0.715395 
	T6.767474 1.142988 
	Q5.805391 0.000000 4.341709 0.000000 
	Q2.639561 0.000000 1.611695 1.258109 
	T0.575605 4.432161 
	Q0.575605 6.356327 1.578803 7.639105 
	T4.358154 8.921882 
	Q5.904066 8.921882 6.874372 7.680219 
	H6.907264 
	V8.724532 
	H8.272270 
	V1.175879 
	Z
	M4.481498 1.208771 
	Q5.427136 1.208771 6.158977 1.957058 
	T6.890818 4.481498 
	Q6.890818 6.043856 6.191868 6.874372 
	T4.465053 7.713111 
	Q3.412517 7.713111 2.754683 6.857926 
	T2.088625 4.514390 
	Q2.088625 2.795797 2.779351 2.006396 
	T4.481498 1.208771 
	Z" />
</g>
<g transform="translate( 54.781179 18.000000 ) scale(1 -1)">
<path
	fill="rgb(255,255,255)"
	stroke="rgb(255,255,255)"
	stroke-width="0.657835"
	d="M8.708086 3.988122 
	H2.170854 
	Q2.261307 2.540886 2.993148 1.776153 
	T4.835085 1.011421 
	Q5.682047 1.011421 6.257652 1.455459 
	T7.137506 2.812243 
	L8.658748 2.623116 
	Q8.288716 1.258109 7.301964 0.526268 
	T4.835085 -0.205573 
	Q2.869804 -0.205573 1.767931 0.994975 
	T0.657835 4.292371 
	Q0.657835 6.356327 1.726816 7.639105 
	T4.752855 8.921882 
	Q5.706715 8.921882 6.586569 8.502513 
	T8.091366 7.079945 
	T8.708086 3.988122 
	Z
	M7.186843 5.205116 
	Q7.096391 6.537232 6.364550 7.121060 
	T4.752855 7.713111 
	Q3.708543 7.713111 3.034262 7.014162 
	T2.253084 5.205116 
	H7.186843 
	Z" />
</g>
<g transform="translate( 64.804934 18.000000 ) scale(1 -1)">
<path
	fill="rgb(255,255,255)"
	stroke="rgb(255,255,255)"
	stroke-width="0.657835"
	d="M8.181818 0.000000 
	H6.800365 
	V1.110096 
	H6.767474 
	Q5.969849 -0.205573 4.358154 -0.205573 
	Q2.754683 -0.205573 1.685701 1.060758 
	T0.608497 4.358154 
	Q0.608497 6.471448 1.619918 7.696665 
	T4.292371 8.921882 
	Q5.854728 8.921882 6.668799 7.729557 
	H6.701690 
	V12.054820 
	H8.181818 
	V0.000000 
	Z
	M4.514390 1.011421 
	Q5.484696 1.011421 6.158977 1.809045 
	T6.833257 4.226587 
	Q6.833257 5.821836 6.216537 6.767474 
	T4.448607 7.713111 
	Q3.297396 7.713111 2.713568 6.792143 
	T2.121517 4.358154 
	Q2.121517 3.272727 2.433988 2.524440 
	T3.322065 1.389676 
	T4.514390 1.011421 
	Z" />
</g>
<g transform="translate( 80.165372 18.000000 ) scale(1 -1)">
<path
	fill="rgb(255,255,255)"
	stroke="rgb(255,255,255)"
	stroke-width="0.657835"
	d="M5.238008 12.112380 
	L5.015989 10.813157 
	Q4.571951 10.895386 4.144358 10.895386 
	Q3.609868 10.895386 3.272727 10.673367 
	T2.927364 9.546825 
	V8.724532 
	H4.613065 
	V7.581544 
	H2.927364 
	V0.000000 
	H1.447236 
	V7.581544 
	H0.131567 
	V8.724532 
	H1.447236 
	V9.670169 
	Q1.447236 10.328004 1.570580 10.862494 
	T2.220192 11.824577 
	T3.856556 12.260393 
	Q4.514390 12.260393 5.238008 12.112380 
	Z" />
</g>
<g transform="translate( 85.502056 18.000000 ) scale(1 -1)">
<path
	fill="rgb(255,255,255)"
	stroke="rgb(255,255,255)"
	stroke-width="0.657835"
	d="M4.678849 8.921882 
	Q6.446779 8.921882 7.606213 7.770672 
	T8.773869 4.497944 
	Q8.773869 1.924166 7.515761 0.863408 
	T4.678849 -0.205573 
	Q3.026039 -0.205573 1.809045 0.888077 
	T0.592051 4.358154 
	Q0.592051 6.660576 1.767931 7.787117 
	T4.678849 8.921882 
	Z
	M4.678849 1.011421 
	Q5.945180 1.011421 6.603015 1.948835 
	T7.260850 4.415715 
	Q7.260850 6.052079 6.520786 6.882595 
	T4.678849 7.713111 
	Q3.552307 7.713111 2.828689 6.874372 
	T2.105071 4.358154 
	Q2.105071 2.697122 2.836912 1.858383 
	T4.678849 1.011421 
	Z" />
</g>
<g transform="translate( 95.525811 18.000000 ) scale(1 -1)">
<path
	fill="rgb(255,255,255)"
	stroke="rgb(255,255,255)"
	stroke-width="0.657835"
	d="M5.830059 8.453175 
	L5.320238 7.088168 
	Q4.769301 7.408862 4.243033 7.408862 
	Q3.412517 7.408862 2.984925 6.668799 
	T2.557332 4.580174 
	V0.000000 
	H1.077204 
	V8.724532 
	H2.425765 
	V7.408862 
	H2.458657 
	Q3.165829 8.921882 4.308817 8.921882 
	Q5.065327 8.921882 5.830059 8.453175 
	Z" />
</g>
<g transform="translate( 101.791686 18.000000 ) scale(1 -1)">
<path
	fill="rgb(255,255,255)"
	stroke="rgb(255,255,255)"
	stroke-width="0.657835"
	d="M8.708086 3.988122 
	H2.170854 
	Q2.261307 2.540886 2.993148 1.776153 
	T4.835085 1.011421 
	Q5.682047 1.011421 6.257652 1.455459 
	T7.137506 2.812243 
	L8.658748 2.623116 
	Q8.288716 1.258109 7.301964 0.526268 
	T4.835085 -0.205573 
	Q2.869804 -0.205573 1.767931 0.994975 
	T0.657835 4.292371 
	Q0.657835 6.356327 1.726816 7.639105 
	T4.752855 8.921882 
	Q5.706715 8.921882 6.586569 8.502513 
	T8.091366 7.079945 
	T8.708086 3.988122 
	Z
	M7.186843 5.205116 
	Q7.096391 6.537232 6.364550 7.121060 
	T4.752855 7.713111 
	Q3.708543 7.713111 3.034262 7.014162 
	T2.253084 5.205116 
	H7.186843 
	Z" />
</g>
<g transform="translate( 111.815441 18.000000 ) scale(1 -1)">
<path
	fill="rgb(255,255,255)"
	stroke="rgb(255,255,255)"
	stroke-width="0.657835"
	d="M5.994518 6.282321 
	Q5.895843 6.997716 5.418913 7.351302 
	T4.078575 7.713111 
	Q3.231613 7.713111 2.713568 7.425308 
	T2.187300 6.586569 
	Q2.187300 6.068524 2.598447 5.846505 
	T4.243033 5.303792 
	Q5.624486 4.950206 6.306989 4.678849 
	T7.375971 3.922339 
	T7.762449 2.557332 
	Q7.762449 1.389676 6.808588 0.592051 
	T4.259479 -0.205573 
	Q2.598447 -0.205573 1.669255 0.493376 
	T0.518045 2.606670 
	L1.989950 2.828689 
	Q2.105071 1.915943 2.664230 1.463682 
	T4.243033 1.011421 
	Q5.213339 1.011421 5.731384 1.414344 
	T6.249429 2.409319 
	Q6.249429 2.804020 6.010964 3.042485 
	T5.418913 3.396071 
	T3.807218 3.823664 
	Q1.948835 4.267702 1.356784 4.900868 
	T0.756510 6.413888 
	Q0.756510 7.507538 1.628141 8.214710 
	T3.971677 8.921882 
	Q5.534034 8.921882 6.397442 8.313385 
	T7.441754 6.479671 
	L5.994518 6.282321 
	Z" />
</g>
<g transform="translate( 120.893559 18.000000 ) scale(1 -1)">
<path
	fill="rgb(255,255,255)"
	stroke="rgb(255,255,255)"
	stroke-width="0.657835"
	d="M4.530836 0.016446 
	Q3.873001 -0.115121 3.420740 -0.115121 
	Q2.450434 -0.115121 2.006396 0.222019 
	T1.463682 1.093650 
	T1.365007 2.557332 
	V7.581544 
	H0.287803 
	V8.724532 
	H1.365007 
	V10.895386 
	L2.845135 11.791686 
	V8.724532 
	H4.325263 
	V7.581544 
	H2.845135 
	V2.475103 
	Q2.845135 1.817268 2.976702 1.545911 
	T3.667428 1.266332 
	Q3.988122 1.266332 4.325263 1.332115 
	L4.530836 0.016446 
	Z" />
</g>
<g transform="translate( 126.230242 18.000000 ) scale(1 -1)">
<path
	fill="rgb(255,255,255)"
	stroke="rgb(255,255,255)"
	stroke-width="0.657835"
	d="M5.994518 6.282321 
	Q5.895843 6.997716 5.418913 7.351302 
	T4.078575 7.713111 
	Q3.231613 7.713111 2.713568 7.425308 
	T2.187300 6.586569 
	Q2.187300 6.068524 2.598447 5.846505 
	T4.243033 5.303792 
	Q5.624486 4.950206 6.306989 4.678849 
	T7.375971 3.922339 
	T7.762449 2.557332 
	Q7.762449 1.389676 6.808588 0.592051 
	T4.259479 -0.205573 
	Q2.598447 -0.205573 1.669255 0.493376 
	T0.518045 2.606670 
	L1.989950 2.828689 
	Q2.105071 1.915943 2.664230 1.463682 
	T4.243033 1.011421 
	Q5.213339 1.011421 5.731384 1.414344 
	T6.249429 2.409319 
	Q6.249429 2.804020 6.010964 3.042485 
	T5.418913 3.396071 
	T3.807218 3.823664 
	Q1.948835 4.267702 1.356784 4.900868 
	T0.756510 6.413888 
	Q0.756510 7.507538 1.628141 8.214710 
	T3.971677 8.921882 
	Q5.534034 8.921882 6.397442 8.313385 
	T7.441754 6.479671 
	L5.994518 6.282321 
	Z" />
</g>

</g>
</g><g transform="translate(20.000000 270.600000)">
<g transform="translate(0.000000 0.000000) scale(1.000000)">
<!-- |FSC|  -->
<g transform="translate( 0.000000 24.000000 ) scale(1 -1)">
<path
	fill="rgb(255,255,255)"
	stroke="rgb(255,255,255)"
	stroke-width="0.877113"
	d="M12.641389 14.165372 
	H3.925080 
	V9.187757 
	H11.479214 
	V7.280037 
	H3.925080 
	V0.000000 
	H1.798081 
	V16.073093 
	H12.641389 
	V14.165372 
	Z" />
</g>
<g transform="translate( 14.592965 24.000000 ) scale(1 -1)">
<path
	fill="rgb(255,255,255)"
	stroke="rgb(255,255,255)"
	stroke-width="0.877113"
	d="M11.270900 11.358611 
	Q11.139333 12.893559 10.163545 13.661032 
	T7.367748 14.439470 
	Q5.723161 14.439470 4.692554 13.825491 
	T3.661946 12.038374 
	Q3.661946 10.996802 4.451348 10.492462 
	T7.499315 9.472819 
	Q9.494746 9.034262 10.755596 8.573778 
	T12.915487 7.148470 
	T13.814527 4.539059 
	Q13.814527 2.466880 12.169941 1.096391 
	T7.861124 -0.274098 
	Q4.473275 -0.274098 2.795797 1.238922 
	T1.008680 5.164002 
	L3.026039 5.339424 
	Q3.168570 3.409776 4.517131 2.532663 
	T7.773413 1.644587 
	Q9.560530 1.644587 10.656921 2.379169 
	T11.764276 4.374600 
	Q11.764276 5.690270 10.613065 6.293285 
	T6.753769 7.477387 
	T2.839653 9.132937 
	T1.644587 11.895843 
	Q1.644587 13.825491 3.157606 15.086341 
	T7.280037 16.347190 
	Q9.955231 16.347190 11.577889 15.097305 
	T13.310187 11.523070 
	L11.270900 11.358611 
	Z" />
</g>
<g transform="translate( 30.446779 24.000000 ) scale(1 -1)">
<path
	fill="rgb(255,255,255)"
	stroke="rgb(255,255,255)"
	stroke-width="0.877113"
	d="M15.338511 5.098218 
	Q14.636820 2.390132 12.893559 1.063499 
	T8.694381 -0.274098 
	Q4.747373 -0.274098 2.949292 2.192782 
	T1.140247 8.146185 
	Q1.140247 11.994518 3.256281 14.165372 
	T8.716309 16.347190 
	Q11.062586 16.347190 12.729100 15.152124 
	T15.064413 11.654637 
	L12.981270 11.161261 
	Q12.455002 12.838739 11.380539 13.682960 
	T8.694381 14.527181 
	Q6.063042 14.527181 4.703518 12.805847 
	T3.343993 8.168113 
	Q3.343993 4.813157 4.769301 3.179534 
	T8.507995 1.545911 
	Q10.393787 1.545911 11.566926 2.565555 
	T13.222476 5.635450 
	L15.338511 5.098218 
	Z" />
</g>

</g>

<g transform="translate(47.398367 4.000000) scale(1.000000)">
<!-- |®|  -->
<g transform="translate( 0.255801 12.000000 ) scale(1 -1)">
<path
	fill="rgb(255,255,255)"
	stroke="rgb(255,255,255)"
	stroke-width="0.438556"
	d="M4.144358 8.173595 
	Q5.838282 8.173595 7.055276 6.962083 
	T8.272270 4.040201 
	Q8.272270 2.335313 7.060758 1.118319 
	T4.144358 -0.098675 
	Q2.433988 -0.098675 1.216994 1.112837 
	T0.000000 4.040201 
	Q0.000000 5.745089 1.216994 6.956601 
	T4.144358 8.173595 
	Z
	M4.133394 0.581087 
	Q5.553221 0.581087 6.567382 1.595249 
	T7.587026 4.040201 
	Q7.587026 5.465509 6.572864 6.474189 
	T4.133394 7.488351 
	Q2.708086 7.488351 1.699406 6.479671 
	T0.685244 4.040201 
	Q0.685244 2.614893 1.693924 1.600731 
	T4.133394 0.581087 
	Z
	M6.063042 1.748744 
	H5.185930 
	Q4.358154 3.256281 4.105984 3.448150 
	T3.470078 3.640018 
	H3.042485 
	V1.748744 
	H2.324349 
	V6.194609 
	H3.864778 
	Q4.555505 6.194609 4.928278 6.095934 
	T5.531293 5.679306 
	T5.761535 4.994061 
	Q5.761535 4.539059 5.432618 4.166286 
	T4.489721 3.749657 
	V3.727730 
	Q4.889904 3.634536 5.525811 2.614893 
	L6.063042 1.748744 
	Z
	M3.042485 4.253997 
	H3.919598 
	Q4.522613 4.253997 4.758337 4.429420 
	T4.994061 4.928278 
	Q4.994061 5.240749 4.769301 5.416172 
	T3.864778 5.591594 
	H3.042485 
	V4.253997 
	Z" />
</g>

</g>

<g transform="translate(56.662403 0.000000) scale(1.000000)">
<!-- | C205360|  -->
<g transform="translate( 0.621242 24.000000 ) scale(1 -1)">
<path
	fill="rgb(255,255,255)"
	stroke="rgb(255,255,255)"
	stroke-width="0.877113"
	d="" />
</g>
<g transform="translate( 7.736819 24.000000 ) scale(1 -1)">
<path
	fill="rgb(255,255,255)"
	stroke="rgb(255,255,255)"
	stroke-width="0.877113"
	d="M15.338511 5.098218 
	Q14.636820 2.390132 12.893559 1.063499 
	T8.694381 -0.274098 
	Q4.747373 -0.274098 2.949292 2.192782 
	T1.140247 8.146185 
	Q1.140247 11.994518 3.256281 14.165372 
	T8.716309 16.347190 
	Q11.062586 16.347190 12.729100 15.152124 
	T15.064413 11.654637 
	L12.981270 11.161261 
	Q12.455002 12.838739 11.380539 13.682960 
	T8.694381 14.527181 
	Q6.063042 14.527181 4.703518 12.805847 
	T3.343993 8.168113 
	Q3.343993 4.813157 4.769301 3.179534 
	T8.507995 1.545911 
	Q10.393787 1.545911 11.566926 2.565555 
	T13.222476 5.635450 
	L15.338511 5.098218 
	Z" />
</g>
<g transform="translate( 24.829556 24.000000 ) scale(1 -1)">
<path
	fill="rgb(255,255,255)"
	stroke="rgb(255,255,255)"
	stroke-width="0.877113"
	d="M11.336683 0.000000 
	H0.690726 
	Q0.690726 1.359525 1.633623 2.751942 
	T5.185930 6.238465 
	Q6.775697 7.510279 8.025582 8.902695 
	T9.275468 11.720420 
	Q9.275468 12.937414 8.420283 13.726816 
	T6.238465 14.527181 
	Q4.911832 14.527181 4.012791 13.715852 
	T3.102787 11.270900 
	L1.074463 11.501142 
	Q1.260850 13.759708 2.675194 14.954774 
	T6.282321 16.149840 
	Q8.650525 16.149840 9.966195 14.845135 
	T11.292828 11.676565 
	Q11.292828 10.130653 10.185473 8.551850 
	T5.745089 4.308817 
	Q4.001827 2.916400 3.431704 1.907720 
	H11.336683 
	V0.000000 
	Z" />
</g>
<g transform="translate( 38.194563 24.000000 ) scale(1 -1)">
<path
	fill="rgb(255,255,255)"
	stroke="rgb(255,255,255)"
	stroke-width="0.877113"
	d="M6.238465 16.149840 
	Q11.479214 16.149840 11.479214 7.926907 
	Q11.479214 3.771585 10.130653 1.754226 
	T6.238465 -0.274098 
	Q1.008680 -0.274098 1.008680 7.926907 
	Q1.008680 12.082229 2.357241 14.110553 
	T6.238465 16.149840 
	Z
	M6.238465 1.348561 
	Q7.828232 1.348561 8.639561 2.883508 
	T9.450891 7.926907 
	Q9.450891 10.360895 9.100046 11.753312 
	T8.025582 13.836455 
	T6.216537 14.527181 
	Q4.626770 14.527181 3.826405 12.959342 
	T3.026039 7.926907 
	Q3.026039 5.525811 3.387848 4.122430 
	T4.462312 2.039287 
	T6.238465 1.348561 
	Z" />
</g>
<g transform="translate( 51.559570 24.000000 ) scale(1 -1)">
<path
	fill="rgb(255,255,255)"
	stroke="rgb(255,255,255)"
	stroke-width="0.877113"
	d="M3.552307 9.659205 
	Q5.021471 10.667885 6.600274 10.667885 
	Q8.606670 10.667885 10.097762 9.253540 
	T11.588853 5.460027 
	Q11.588853 3.069895 10.075834 1.403381 
	T6.106898 -0.274098 
	Q4.100503 -0.274098 2.631339 0.855185 
	T0.942896 4.221106 
	L3.004111 4.374600 
	Q3.256281 2.850617 4.078575 2.105071 
	T6.106898 1.348561 
	Q7.608954 1.348561 8.540886 2.477844 
	T9.472819 5.273641 
	Q9.472819 6.962083 8.518958 7.937871 
	T6.063042 8.913659 
	Q4.166286 8.913659 3.146642 7.367748 
	L1.282778 7.587026 
	L2.850617 15.853815 
	H10.821380 
	V13.946094 
	H4.418456 
	L3.552307 9.659205 
	Z" />
</g>
<g transform="translate( 64.924576 24.000000 ) scale(1 -1)">
<path
	fill="rgb(255,255,255)"
	stroke="rgb(255,255,255)"
	stroke-width="0.877113"
	d="M8.507995 8.694381 
	Q9.999086 8.409319 10.755596 7.258109 
	T11.523070 4.736409 
	Q11.523070 2.543627 9.933303 1.140247 
	T6.106898 -0.274098 
	Q3.979899 -0.274098 2.598447 0.964824 
	T0.986752 4.243033 
	L2.960256 4.517131 
	Q3.256281 2.927364 4.034719 2.137963 
	T6.106898 1.348561 
	Q7.488351 1.348561 8.442211 2.313385 
	T9.407035 4.692554 
	Q9.407035 6.041115 8.540886 6.929191 
	T6.260393 7.817268 
	Q5.690270 7.817268 4.867976 7.608954 
	L5.098218 9.341252 
	Q5.887620 9.341252 6.348104 9.417999 
	T7.378712 9.790772 
	T8.321608 10.634993 
	T8.694381 12.016446 
	Q8.694381 13.211512 7.904979 13.869347 
	T6.063042 14.527181 
	Q4.867976 14.527181 4.122430 13.770672 
	T3.168570 11.610781 
	L1.195066 11.972590 
	Q1.578803 14.066697 2.883508 15.108269 
	T6.019187 16.149840 
	Q8.025582 16.149840 9.363180 14.943810 
	T10.711741 11.972590 
	Q10.711741 9.724989 8.507995 8.738237 
	V8.694381 
	Z" />
</g>
<g transform="translate( 78.289583 24.000000 ) scale(1 -1)">
<path
	fill="rgb(255,255,255)"
	stroke="rgb(255,255,255)"
	stroke-width="0.877113"
	d="M2.938328 8.288716 
	Q4.297853 10.415715 6.808588 10.415715 
	Q8.782092 10.415715 10.163545 8.957515 
	T11.544998 5.229785 
	Q11.544998 2.938328 10.174509 1.337597 
	T6.512563 -0.274098 
	Q4.199178 -0.274098 2.576519 1.436272 
	T0.942896 7.521243 
	Q0.942896 11.819095 2.412060 13.978986 
	T6.687985 16.149840 
	Q8.497031 16.149840 9.746916 15.141160 
	T11.270900 12.148013 
	L9.297396 11.972590 
	Q8.760164 14.527181 6.578346 14.527181 
	Q5.065327 14.527181 3.979899 13.025126 
	T2.894472 8.288716 
	H2.938328 
	Z
	M6.468707 1.348561 
	Q7.828232 1.348561 8.672453 2.444952 
	T9.516674 5.098218 
	Q9.516674 6.655094 8.672453 7.674737 
	T6.402924 8.694381 
	Q5.098218 8.694381 4.155322 7.740521 
	T3.212426 5.207857 
	Q3.212426 3.607127 4.133394 2.477844 
	T6.468707 1.348561 
	Z" />
</g>
<g transform="translate( 91.654590 24.000000 ) scale(1 -1)">
<path
	fill="rgb(255,255,255)"
	stroke="rgb(255,255,255)"
	stroke-width="0.877113"
	d="M6.238465 16.149840 
	Q11.479214 16.149840 11.479214 7.926907 
	Q11.479214 3.771585 10.130653 1.754226 
	T6.238465 -0.274098 
	Q1.008680 -0.274098 1.008680 7.926907 
	Q1.008680 12.082229 2.357241 14.110553 
	T6.238465 16.149840 
	Z
	M6.238465 1.348561 
	Q7.828232 1.348561 8.639561 2.883508 
	T9.450891 7.926907 
	Q9.450891 10.360895 9.100046 11.753312 
	T8.025582 13.836455 
	T6.216537 14.527181 
	Q4.626770 14.527181 3.826405 12.959342 
	T3.026039 7.926907 
	Q3.026039 5.525811 3.387848 4.122430 
	T4.462312 2.039287 
	T6.238465 1.348561 
	Z" />
</g>

</g>
</g></svg>